<svg width="64" height="64" viewBox="0 0 256 256" fill="none" xmlns="http://www.w3.org/2000/svg">
  <defs>
    <linearGradient id="g" x1="24" y1="40" x2="232" y2="216" gradientUnits="userSpaceOnUse">
      <stop offset="0" stop-color="#4B1D95"/>
      <stop offset="0.5" stop-color="#A21CAF"/>
      <stop offset="1" stop-color="#E11D48"/>
    </linearGradient>
  </defs>
  <rect width="256" height="256" rx="56" fill="#F8FBFF"/>
  <g stroke="url(#g)" stroke-width="16" stroke-linecap="round" stroke-linejoin="round">
    <path d="M28 150H78V111"/>
    <path d="M28 138C58 135 78 119 91 82"/>
    <path d="M84 150H103"/>
    <path d="M74 64H102"/>
    <path d="M84 64V194H103"/>
    <path d="M228 150H178V111"/>
    <path d="M228 138C198 135 178 119 165 82"/>
    <path d="M172 150H153"/>
    <path d="M182 64H154"/>
    <path d="M172 64V194H154"/>
    <path d="M101 150C98 129 114 112 135 117C143 99 173 98 183 120C199 121 209 132 209 148C209 166 197 177 180 177H158"/>
    <path d="M101 150C85 150 75 162 75 176C75 191 86 200 102 200H122"/>
    <path d="M128 178V218"/>
    <path d="M151 160V200"/>
    <path d="M106 181V200"/>
  </g>
  <g fill="url(#g)">
    <circle cx="128" cy="176" r="12"/>
    <circle cx="128" cy="220" r="12"/>
    <circle cx="151" cy="158" r="12"/>
    <circle cx="151" cy="202" r="12"/>
    <circle cx="106" cy="179" r="12"/>
  </g>
</svg>
